<svg width="401" height="89" viewBox="0 0 401 89" fill="none" xmlns="http://www.w3.org/2000/svg">
<path d="M47.5337 33.0948L32.3864 33.4996C32.2289 32.4201 31.8016 31.4643 31.1044 30.6321C30.4072 29.7775 29.4963 29.114 28.3718 28.6417C27.2698 28.1469 25.9878 27.8995 24.5259 27.8995C22.6142 27.8995 20.9837 28.2818 19.6342 29.0465C18.3073 29.8112 17.6551 30.8458 17.6776 32.1502C17.6551 33.1623 18.0599 34.0394 18.892 34.7816C19.7467 35.5238 21.2648 36.1198 23.4464 36.5696L33.4322 38.4588C38.605 39.4484 42.4509 41.0902 44.9698 43.3842C47.5112 45.6783 48.7932 48.7145 48.8157 52.4929C48.7932 56.0464 47.7362 59.1389 45.6445 61.7702C43.5754 64.4016 40.7416 66.4483 37.1431 67.9102C33.5446 69.3495 29.4289 70.0693 24.7958 70.0693C17.3964 70.0693 11.5601 68.5511 7.28693 65.5149C3.03622 62.4562 0.607244 58.3629 0 53.2351L16.2944 52.8303C16.6542 54.7195 17.5876 56.1589 19.0945 57.1484C20.6013 58.138 22.5243 58.6328 24.8633 58.6328C26.9774 58.6328 28.6979 58.2392 30.0249 57.4521C31.3518 56.6649 32.0265 55.6191 32.049 54.3146C32.0265 53.1451 31.5092 52.2118 30.4972 51.5146C29.4851 50.7949 27.8995 50.2326 25.7404 49.8278L16.6992 48.1072C11.5039 47.1626 7.63554 45.4196 5.09411 42.8782C2.55268 40.3143 1.29321 37.0532 1.3157 33.0948C1.29321 29.6313 2.21532 26.6738 4.08203 24.2223C5.94875 21.7483 8.60263 19.8591 12.0437 18.5547C15.4847 17.2502 19.5443 16.598 24.2223 16.598C31.2393 16.598 36.772 18.0711 40.8203 21.0174C44.8686 23.9412 47.1064 27.967 47.5337 33.0948Z" fill="#EC1B90"/>
<path d="M81.1262 70.0693C75.6609 70.0693 70.9717 68.9447 67.0583 66.6957C63.1675 64.4466 60.1762 61.3204 58.0846 57.3171C55.993 53.2913 54.9472 48.6358 54.9472 43.3505C54.9472 38.0427 55.993 33.3872 58.0846 29.3839C60.1987 25.3581 63.2012 22.2206 67.0921 19.9716C71.0054 17.7225 75.6722 16.598 81.0924 16.598C85.8829 16.598 90.0549 17.4639 93.6084 19.1957C97.1844 20.9274 99.9732 23.3789 101.975 26.5501C103.999 29.6987 105.067 33.3984 105.18 37.6492H89.7625C89.4477 34.9953 88.548 32.9149 87.0637 31.408C85.6018 29.9012 83.6901 29.1477 81.3286 29.1477C79.4169 29.1477 77.7413 29.6875 76.3019 30.767C74.8625 31.8241 73.738 33.3984 72.9284 35.4901C72.1412 37.5592 71.7476 40.1231 71.7476 43.1818C71.7476 46.2405 72.1412 48.8269 72.9284 50.9411C73.738 53.0327 74.8625 54.6183 76.3019 55.6978C77.7413 56.7549 79.4169 57.2834 81.3286 57.2834C82.8579 57.2834 84.2074 56.9573 85.3769 56.305C86.5689 55.6528 87.5472 54.697 88.3119 53.4375C89.0766 52.1555 89.5601 50.6037 89.7625 48.782H105.18C105.022 53.0552 103.954 56.7886 101.975 59.9822C100.018 63.1759 97.2631 65.6611 93.7096 67.4379C90.1786 69.1921 85.9841 70.0693 81.1262 70.0693Z" fill="#EC1B90"/>
<path d="M113.622 69.0909V17.2727H129.647V26.7188H130.186C131.131 23.3002 132.672 20.7588 134.808 19.0945C136.945 17.4077 139.43 16.5643 142.264 16.5643C143.029 16.5643 143.816 16.6205 144.625 16.733C145.435 16.8229 146.188 16.9691 146.886 17.1715V31.5092C146.098 31.2393 145.064 31.0257 143.782 30.8683C142.522 30.7108 141.398 30.6321 140.408 30.6321C138.452 30.6321 136.686 31.0707 135.112 31.9478C133.56 32.8024 132.334 34.0057 131.435 35.5575C130.558 37.0869 130.119 38.8861 130.119 40.9553V69.0909H113.622Z" fill="#EC1B90"/>
<path d="M166.267 69.968C162.961 69.968 160.026 69.417 157.462 68.315C154.92 67.1905 152.907 65.5037 151.423 63.2546C149.961 60.9831 149.23 58.138 149.23 54.7195C149.23 51.8407 149.736 49.4117 150.748 47.4325C151.76 45.4534 153.155 43.8453 154.932 42.6083C156.708 41.3713 158.755 40.438 161.072 39.8082C163.388 39.156 165.862 38.7174 168.493 38.4925C171.44 38.2227 173.812 37.9415 175.612 37.6492C177.411 37.3343 178.715 36.8957 179.525 36.3335C180.357 35.7487 180.773 34.9278 180.773 33.8707V33.7021C180.773 31.9703 180.177 30.6321 178.985 29.6875C177.793 28.7429 176.185 28.2706 174.161 28.2706C171.979 28.2706 170.225 28.7429 168.898 29.6875C167.571 30.6321 166.728 31.9366 166.368 33.6009L151.153 33.0611C151.603 29.9124 152.761 27.1011 154.628 24.6271C156.517 22.1307 159.104 20.174 162.387 18.7571C165.693 17.3177 169.663 16.598 174.296 16.598C177.602 16.598 180.65 16.9916 183.438 17.7788C186.227 18.5434 188.656 19.668 190.725 21.1523C192.794 22.6142 194.391 24.4135 195.516 26.5501C196.663 28.6867 197.236 31.1269 197.236 33.8707V69.0909H181.718V61.8715H181.313C180.391 63.6257 179.21 65.1101 177.771 66.3246C176.354 67.5391 174.678 68.4499 172.744 69.0572C170.832 69.6644 168.673 69.968 166.267 69.968ZM171.361 59.1726C173.138 59.1726 174.735 58.8127 176.151 58.093C177.591 57.3733 178.738 56.3838 179.593 55.1243C180.447 53.8423 180.874 52.358 180.874 50.6712V45.7457C180.402 45.9931 179.829 46.218 179.154 46.4205C178.502 46.6229 177.782 46.814 176.995 46.994C176.208 47.1739 175.398 47.3313 174.566 47.4663C173.734 47.6012 172.935 47.7249 172.171 47.8374C170.619 48.0848 169.292 48.4671 168.19 48.9844C167.11 49.5017 166.278 50.1764 165.693 51.0085C165.131 51.8182 164.85 52.7853 164.85 53.9098C164.85 55.6191 165.457 56.9235 166.672 57.8232C167.909 58.7228 169.472 59.1726 171.361 59.1726Z" fill="#EC1B90"/>
<path d="M207.323 88.5227V17.2727H223.651V26.1452H224.158C224.832 24.5709 225.788 23.0528 227.025 21.5909C228.285 20.129 229.881 18.937 231.816 18.0149C233.772 17.0703 236.111 16.598 238.833 16.598C242.431 16.598 245.793 17.5426 248.92 19.4318C252.068 21.321 254.61 24.2335 256.544 28.1694C258.478 32.1052 259.445 37.1206 259.445 43.2156C259.445 49.0856 258.512 53.9998 256.645 57.9581C254.801 61.9164 252.304 64.8852 249.156 66.8643C246.03 68.8435 242.555 69.8331 238.731 69.8331C236.122 69.8331 233.862 69.4058 231.95 68.5511C230.039 67.6965 228.431 66.572 227.126 65.1776C225.844 63.7831 224.855 62.2875 224.158 60.6907H223.82V88.5227H207.323ZM223.483 43.1818C223.483 45.9706 223.854 48.3996 224.596 50.4688C225.361 52.5379 226.452 54.146 227.868 55.293C229.308 56.4175 231.028 56.9798 233.03 56.9798C235.054 56.9798 236.775 56.4175 238.192 55.293C239.608 54.146 240.677 52.5379 241.396 50.4688C242.139 48.3996 242.51 45.9706 242.51 43.1818C242.51 40.393 242.139 37.9753 241.396 35.9286C240.677 33.882 239.608 32.2964 238.192 31.1719C236.797 30.0473 235.077 29.4851 233.03 29.4851C231.006 29.4851 229.285 30.0361 227.868 31.1381C226.452 32.2402 225.361 33.8145 224.596 35.8612C223.854 37.9078 223.483 40.348 223.483 43.1818Z" fill="#EC1B90"/>
<path d="M284.587 0V69.0909H268.09V0H284.587Z" fill="#EC1B90"/>
<path d="M319.309 70.0693C313.889 70.0693 309.211 69.0009 305.275 66.8643C301.362 64.7053 298.348 61.6353 296.234 57.6545C294.142 53.6512 293.097 48.8944 293.097 43.3842C293.097 38.0315 294.154 33.3535 296.268 29.3501C298.382 25.3243 301.362 22.1982 305.208 19.9716C309.054 17.7225 313.585 16.598 318.803 16.598C322.492 16.598 325.865 17.1715 328.924 18.3185C331.983 19.4656 334.625 21.1636 336.852 23.4126C339.078 25.6617 340.81 28.4393 342.047 31.7454C343.284 35.029 343.903 38.7962 343.903 43.0469V47.1626H298.865V37.5817H328.553C328.53 35.8274 328.114 34.2643 327.305 32.8924C326.495 31.5205 325.382 30.4522 323.965 29.6875C322.57 28.9003 320.962 28.5067 319.141 28.5067C317.296 28.5067 315.643 28.9228 314.181 29.755C312.72 30.5646 311.561 31.6779 310.707 33.0948C309.852 34.4892 309.402 36.0748 309.357 37.8516V47.6012C309.357 49.7153 309.773 51.5708 310.605 53.1676C311.438 54.742 312.618 55.9677 314.148 56.8448C315.677 57.722 317.499 58.1605 319.613 58.1605C321.075 58.1605 322.402 57.9581 323.594 57.5533C324.786 57.1484 325.809 56.5524 326.664 55.7653C327.518 54.9781 328.159 54.011 328.587 52.864L343.734 53.3026C343.104 56.6986 341.721 59.6561 339.585 62.1751C337.47 64.6715 334.693 66.617 331.252 68.0114C327.811 69.3833 323.83 70.0693 319.309 70.0693Z" fill="#EC1B90"/>
<path d="M365.62 17.2727L374.155 34.343L382.994 17.2727H399.626L385.153 43.1818L400.166 69.0909H383.669L374.155 51.8857L364.878 69.0909H348.145L363.191 43.1818L348.887 17.2727H365.62Z" fill="#EC1B90"/>
</svg>
